<svg width="84" height="84" viewBox="0 0 84 84" fill="none" xmlns="http://www.w3.org/2000/svg">
<rect width="84" height="84" rx="12" fill="#007AAE"/>
<path d="M60.2152 27.9146C55.854 24.4082 48.9548 23.8139 48.6595 23.7925C48.2016 23.754 47.765 24.0106 47.5767 24.4339C47.5596 24.4596 47.4098 24.8059 47.2429 25.3447C50.1275 25.8322 53.6713 26.8114 56.8769 28.7997C57.3905 29.1161 57.5488 29.7918 57.2321 30.3049C57.0224 30.6427 56.6672 30.8266 56.2991 30.8266C56.1022 30.8266 55.9011 30.771 55.7213 30.6598C50.2088 27.2432 43.3268 27.0722 42 27.0722C40.6732 27.0722 33.7869 27.2432 28.2787 30.6598C27.7651 30.9805 27.0889 30.8223 26.7722 30.3092C26.4512 29.7918 26.6095 29.1204 27.1231 28.7997C30.3287 26.8156 33.8725 25.8322 36.7571 25.349C36.5902 24.8059 36.4404 24.4638 36.4276 24.4339C36.235 24.0106 35.8027 23.7455 35.3405 23.7925C35.0452 23.8139 28.146 24.4082 23.7249 27.9616C21.418 30.0954 16.8 42.5642 16.8 53.3441C16.8 53.5365 16.8514 53.7204 16.9455 53.8872C20.1298 59.4802 28.8222 60.9426 30.8038 61.0067C30.8124 61.0067 30.8252 61.0067 30.838 61.0067C31.189 61.0067 31.5185 60.84 31.724 60.5578L33.727 57.804C28.3215 56.41 25.5609 54.0411 25.4026 53.9C24.9489 53.5023 24.9061 52.8096 25.3084 52.3563C25.7065 51.9031 26.3998 51.8603 26.8535 52.258C26.9177 52.3179 32.0022 56.6281 42 56.6281C52.0149 56.6281 57.0995 52.3008 57.1508 52.258C57.6045 51.8646 58.2935 51.9031 58.6959 52.3606C59.0939 52.8139 59.0511 53.5023 58.5974 53.9C58.4391 54.0411 55.6785 56.41 50.273 57.804L52.276 60.5578C52.4815 60.84 52.811 61.0067 53.162 61.0067C53.1748 61.0067 53.1876 61.0067 53.1962 61.0067C55.1778 60.9426 63.8702 59.4802 67.0545 53.8872C67.1486 53.7204 67.2 53.5365 67.2 53.3441C67.2 42.5642 62.582 30.0954 60.2152 27.9146ZM34.8783 48.9655C32.7597 48.9655 31.0435 47.007 31.0435 44.5868C31.0435 42.1666 32.7597 40.2082 34.8783 40.2082C36.9968 40.2082 38.713 42.1666 38.713 44.5868C38.713 47.007 36.9968 48.9655 34.8783 48.9655ZM49.1217 48.9655C47.0032 48.9655 45.287 47.007 45.287 44.5868C45.287 42.1666 47.0032 40.2082 49.1217 40.2082C51.2403 40.2082 52.9565 42.1666 52.9565 44.5868C52.9565 47.007 51.2403 48.9655 49.1217 48.9655Z" fill="white"/>
</svg>
