<svg width="84" height="84" viewBox="0 0 84 84" fill="none" xmlns="http://www.w3.org/2000/svg">
<rect width="84" height="84" rx="12" fill="#007AAE"/>
<path d="M57.9253 29.876C59.7109 28.7589 61.047 27 61.684 24.9277C60.0061 25.9694 58.1704 26.7033 56.2561 27.0975C53.602 24.1596 49.397 23.4447 45.9906 25.3522C42.5842 27.2596 40.8198 31.3173 41.6833 35.2578C34.8104 34.8968 28.4072 31.4995 24.0669 25.9115C21.8018 29.9998 22.9593 35.2261 26.7121 37.855C25.3551 37.8093 24.0281 37.4248 22.8419 36.7336C22.8419 36.7711 22.8419 36.8086 22.8419 36.8461C22.8426 41.1048 25.7109 44.7732 29.7 45.6172C28.4412 45.9755 27.1209 46.0283 25.8397 45.7714C26.9615 49.4134 30.1692 51.9084 33.8252 51.9829C30.7972 54.4698 27.0577 55.8185 23.2084 55.8119C22.5261 55.8129 21.8443 55.7718 21.1667 55.6889C25.0756 58.3174 29.625 59.7125 34.2714 59.7076C40.7356 59.754 46.948 57.0873 51.5188 52.3039C56.0896 47.5205 58.6375 41.0196 58.5926 34.2552C58.5926 33.8676 58.5839 33.4819 58.5667 33.0984C60.2408 31.8324 61.6856 30.264 62.8333 28.4669C61.2737 29.1903 59.6193 29.6653 57.9253 29.876Z" fill="white"/>
</svg>
